static_grf.mot
version=1
nRows=27
nColumns 19
inDegrees=yes
endheader
time	1_ground_force_vx	1_ground_force_vy	1_ground_force_vz	1_ground_force_px	1_ground_force_py	1_ground_force_pz	1_ground_torque_x	1_ground_torque_y	1_ground_torque_z	2_ground_force_vx	2_ground_force_vy	2_ground_force_vz	2_ground_force_px	2_ground_force_py	2_ground_force_pz	2_ground_torque_x	2_ground_torque_y	2_ground_torque_z
            0.503500	           -5.249502	          425.209391	          -31.731253	           -0.297866	            0.006151	           -0.391288	           -0.024893	            2.016367	           -0.150471	            4.213954	          484.770369	           33.591688	           -0.314155	            0.005366	           -0.702224	           -0.003269	           -0.376110	           -0.026062
            0.504000	           -5.020122	          424.308137	          -31.735687	           -0.297851	            0.006152	           -0.391486	           -0.023553	            1.990698	           -0.148892	            3.981616	          484.217771	           33.402104	           -0.314216	            0.005364	           -0.701685	           -0.002677	           -0.325543	           -0.022456
            0.504500	           -4.928697	          424.488783	          -31.826853	           -0.297980	            0.006152	           -0.391614	           -0.023801	            2.049847	           -0.153691	            4.116808	          485.691800	           33.313445	           -0.314120	            0.005367	           -0.702434	           -0.002949	           -0.347878	           -0.023861
            0.505000	           -5.112021	          424.849083	          -31.779000	           -0.297824	            0.006151	           -0.391361	           -0.023835	            1.980842	           -0.148168	            4.068649	          486.059745	           33.361707	           -0.314090	            0.005367	           -0.702612	           -0.003351	           -0.400288	           -0.027475
            0.505500	           -4.974914	          424.669660	          -31.963538	           -0.297775	            0.006151	           -0.391218	           -0.024202	            2.065965	           -0.155499	            4.071411	          485.322345	           33.593719	           -0.314027	            0.005366	           -0.702296	           -0.002883	           -0.343714	           -0.023792
            0.506000	           -4.745909	          423.949232	          -32.104763	           -0.298075	            0.006153	           -0.391683	           -0.023563	            2.104845	           -0.159395	            4.211213	          485.507663	           33.406604	           -0.313835	            0.005367	           -0.702269	           -0.003367	           -0.388155	           -0.026708
            0.506500	           -4.975028	          424.669857	          -32.009390	           -0.297825	            0.006151	           -0.391398	           -0.023814	            2.032756	           -0.153218	            3.698523	          484.769178	           33.404195	           -0.314085	            0.005366	           -0.702184	           -0.002437	           -0.319394	           -0.022009
            0.507000	           -5.295980	          425.570896	          -31.958877	           -0.297684	            0.006149	           -0.390886	           -0.024803	            1.993127	           -0.149677	            3.972312	          486.795863	           33.411303	           -0.314004	            0.005368	           -0.702617	           -0.003329	           -0.407997	           -0.028003
            0.507500	           -4.929853	          425.211615	          -32.236469	           -0.297508	            0.006151	           -0.391204	           -0.024019	            2.071658	           -0.157058	            4.026452	          484.770529	           33.357127	           -0.314000	            0.005366	           -0.702185	           -0.003113	           -0.374854	           -0.025794
            0.508000	           -5.019894	          424.307744	          -31.643975	           -0.297759	            0.006152	           -0.391610	           -0.023875	            2.018059	           -0.150503	            3.744126	          485.136959	           33.593201	           -0.314061	            0.005367	           -0.702438	           -0.002469	           -0.319861	           -0.022149
            0.508500	           -5.341544	          424.669393	          -31.916768	           -0.297828	            0.006153	           -0.391701	           -0.024962	            1.984526	           -0.149151	            3.787550	          486.058730	           33.361826	           -0.313753	            0.005369	           -0.702648	           -0.002453	           -0.314787	           -0.021606
            0.509000	           -4.883130	          424.128851	          -31.966085	           -0.297945	            0.006151	           -0.391256	           -0.023249	            2.019302	           -0.152192	            3.977587	          485.323011	           33.312190	           -0.313833	            0.005367	           -0.702373	           -0.002861	           -0.349062	           -0.023959
            0.509500	           -5.112215	          424.669241	          -31.871485	           -0.297805	            0.006150	           -0.391031	           -0.023818	            1.978552	           -0.148491	            3.834441	          486.058564	           33.455663	           -0.314026	            0.005367	           -0.702455	           -0.002371	           -0.300511	           -0.020684
            0.510000	           -4.836963	          424.849136	          -31.779683	           -0.297652	            0.006151	           -0.391272	           -0.023235	            2.040783	           -0.152655	            4.115479	          486.060081	           33.314759	           -0.313944	            0.005367	           -0.702340	           -0.002823	           -0.333409	           -0.022852
            0.510500	           -5.020706	          423.768489	          -32.013141	           -0.297924	            0.006153	           -0.391822	           -0.024024	            2.027737	           -0.153183	            3.882723	          485.689615	           33.688969	           -0.313918	            0.005367	           -0.702358	           -0.003262	           -0.407986	           -0.028299
            0.511000	           -4.791557	          424.129065	          -32.012164	           -0.297576	            0.006152	           -0.391571	           -0.023143	            2.048533	           -0.154618	            3.927476	          486.243043	           33.456280	           -0.313641	            0.005368	           -0.702467	           -0.002733	           -0.338328	           -0.023279
            0.511500	           -5.020512	          423.948392	          -31.920656	           -0.297772	            0.006151	           -0.391399	           -0.023469	            1.981797	           -0.149217	            3.838573	          484.952487	           33.780217	           -0.314049	            0.005366	           -0.702234	           -0.002757	           -0.348259	           -0.024259
            0.512000	           -5.295603	          424.128574	          -31.919201	           -0.297861	            0.006150	           -0.391034	           -0.024683	            1.976890	           -0.148777	            4.164281	          485.508163	           33.218911	           -0.313763	            0.005367	           -0.702268	           -0.002964	           -0.345541	           -0.023642
            0.512500	           -5.066843	          424.129405	          -32.103193	           -0.297595	            0.006151	           -0.391363	           -0.024887	            2.083244	           -0.157685	            3.789544	          485.506307	           33.359855	           -0.313802	            0.005368	           -0.702422	           -0.002700	           -0.345958	           -0.023771
            0.513000	           -4.882641	          423.947829	          -31.783434	           -0.297654	            0.006152	           -0.391431	           -0.023850	            2.070828	           -0.155250	            4.073261	          484.771033	           33.263251	           -0.314124	            0.005365	           -0.702107	           -0.002697	           -0.321002	           -0.022026
            0.513500	           -5.021099	          424.670241	          -32.100988	           -0.297696	            0.006151	           -0.391320	           -0.023983	            2.028432	           -0.153330	            4.023732	          485.507655	           33.218971	           -0.313916	            0.005367	           -0.702307	           -0.003062	           -0.369447	           -0.025278
            0.514000	           -5.386980	          424.308263	          -31.780636	           -0.297715	            0.006152	           -0.391583	           -0.024963	            1.966195	           -0.147268	            3.744688	          484.953655	           33.357904	           -0.313775	            0.005367	           -0.702196	           -0.002846	           -0.368558	           -0.025352
            0.514500	           -5.111547	          424.127430	          -31.644521	           -0.297256	            0.006150	           -0.391052	           -0.024670	            2.046996	           -0.152728	            4.064059	          487.348288	           33.507091	           -0.313686	            0.005369	           -0.702803	           -0.003002	           -0.360043	           -0.024754
            0.515000	           -5.066226	          424.488757	          -31.826512	           -0.297555	            0.006150	           -0.390997	           -0.024106	            2.019812	           -0.151438	            3.882579	          485.690786	           33.360472	           -0.313883	            0.005367	           -0.702396	           -0.003037	           -0.379862	           -0.026091
            0.515500	           -5.158481	          424.489722	          -32.055568	           -0.297697	            0.006150	           -0.390976	           -0.024407	            2.008463	           -0.151670	            3.741447	          485.873750	           33.548902	           -0.313666	            0.005369	           -0.702599	           -0.002475	           -0.321462	           -0.022196
            0.516000	           -5.020236	          424.308334	          -31.781547	           -0.297754	            0.006151	           -0.391226	           -0.024002	            2.028670	           -0.151951	            3.926791	          486.427351	           33.410009	           -0.313800	            0.005369	           -0.702671	           -0.002961	           -0.366744	           -0.025190
            0.516500	           -5.386947	          424.127967	          -31.781409	           -0.297823	            0.006150	           -0.391110	           -0.025404	            2.000086	           -0.149874	            3.927497	          486.242876	           33.503208	           -0.313481	            0.005370	           -0.702738	           -0.003016	           -0.373337	           -0.025724
